<svg xmlns="http://www.w3.org/2000/svg" xmlns:xlink="http://www.w3.org/1999/xlink" viewBox="0 0 570.63 403.08"><defs><style>.cls-1{isolation:isolate;}.cls-2{opacity:0.4;}.cls-3{fill:#fff;}.cls-4{fill:url(#linear-gradient);}.cls-10,.cls-11,.cls-12,.cls-13,.cls-14,.cls-15,.cls-16,.cls-17,.cls-18,.cls-19,.cls-20,.cls-21,.cls-22,.cls-23,.cls-24,.cls-25,.cls-26,.cls-27,.cls-28,.cls-29,.cls-30,.cls-31,.cls-32,.cls-33,.cls-34,.cls-35,.cls-36,.cls-37,.cls-38,.cls-39,.cls-40,.cls-41,.cls-42,.cls-5,.cls-6,.cls-7,.cls-8,.cls-9{mix-blend-mode:soft-light;}.cls-5{fill:url(#linear-gradient-2);}.cls-6{fill:url(#linear-gradient-3);}.cls-7{fill:url(#linear-gradient-4);}.cls-8{fill:url(#linear-gradient-5);}.cls-9{fill:url(#linear-gradient-6);}.cls-10{fill:url(#linear-gradient-7);}.cls-11{fill:url(#linear-gradient-8);}.cls-12{fill:url(#linear-gradient-9);}.cls-13{fill:url(#linear-gradient-10);}.cls-14{fill:url(#linear-gradient-11);}.cls-15{fill:url(#linear-gradient-12);}.cls-16{fill:url(#linear-gradient-13);}.cls-17{fill:url(#linear-gradient-14);}.cls-18{fill:url(#linear-gradient-15);}.cls-19{fill:url(#linear-gradient-16);}.cls-20{fill:url(#linear-gradient-17);}.cls-21{fill:url(#linear-gradient-18);}.cls-22{fill:url(#linear-gradient-19);}.cls-23{fill:url(#linear-gradient-20);}.cls-24{fill:url(#linear-gradient-21);}.cls-25{fill:url(#linear-gradient-22);}.cls-26{fill:url(#linear-gradient-23);}.cls-27{fill:url(#linear-gradient-24);}.cls-28{fill:url(#linear-gradient-25);}.cls-29{fill:url(#linear-gradient-26);}.cls-30{fill:url(#linear-gradient-27);}.cls-31{fill:url(#linear-gradient-28);}.cls-32{fill:url(#linear-gradient-29);}.cls-33{fill:url(#linear-gradient-30);}.cls-34{fill:url(#linear-gradient-31);}.cls-35{fill:url(#linear-gradient-32);}.cls-36{fill:url(#linear-gradient-33);}.cls-37{fill:url(#linear-gradient-34);}.cls-38{fill:url(#linear-gradient-35);}.cls-39{fill:url(#linear-gradient-36);}.cls-40{fill:url(#linear-gradient-37);}.cls-41{fill:url(#linear-gradient-38);}.cls-42{fill:url(#linear-gradient-39);}</style><linearGradient id="linear-gradient" x1="807.82" y1="473.39" x2="807.82" y2="50.18" gradientTransform="matrix(0, -1, -1, 0, 663.59, 1009.36)" gradientUnits="userSpaceOnUse"><stop offset="0" stop-color="#fff"/><stop offset="0.1" stop-color="#f9fcfe"/><stop offset="0.22" stop-color="#e9f4fb"/><stop offset="0.36" stop-color="#cde7f6"/><stop offset="0.52" stop-color="#a7d5f0"/><stop offset="0.69" stop-color="#76bde7"/><stop offset="0.86" stop-color="#3ba1dd"/><stop offset="1" stop-color="#0486d3"/></linearGradient><linearGradient id="linear-gradient-2" x1="384.86" y1="-3758.98" x2="904.75" y2="-3527.51" gradientTransform="matrix(0.48, 0.14, 0.14, -0.48, 725.74, -1807.73)" gradientUnits="userSpaceOnUse"><stop offset="0" stop-color="#fff"/><stop offset="0.09" stop-color="#f9f9f9"/><stop offset="0.22" stop-color="#e9e9e9"/><stop offset="0.36" stop-color="#cdcdcd"/><stop offset="0.51" stop-color="#a7a7a7"/><stop offset="0.68" stop-color="#767676"/><stop offset="0.85" stop-color="#3b3b3b"/><stop offset="1"/></linearGradient><linearGradient id="linear-gradient-3" x1="756.9" y1="500.72" x2="1294.28" y2="739.98" gradientTransform="matrix(-0.4, -0.45, -0.86, 0.21, 1411.61, 721.05)" xlink:href="#linear-gradient-2"/><linearGradient id="linear-gradient-4" x1="3400.36" y1="-1439.61" x2="3986.7" y2="-1178.55" gradientTransform="matrix(-0.62, 0.65, 0.69, 0.58, 3615.04, -1142.5)" xlink:href="#linear-gradient-2"/><linearGradient id="linear-gradient-5" x1="1414.96" y1="262.08" x2="1950.6" y2="500.56" gradientTransform="matrix(-0.47, -0.97, -0.98, 0.47, 1488.56, 1527.1)" xlink:href="#linear-gradient-2"/><linearGradient id="linear-gradient-6" x1="-895.21" y1="-733.82" x2="-285.63" y2="-462.42" gradientTransform="matrix(0.32, -0.38, -0.38, -0.32, 312.32, -108.51)" xlink:href="#linear-gradient-2"/><linearGradient id="linear-gradient-7" x1="3349.95" y1="-3456.81" x2="3908.4" y2="-3208.17" gradientTransform="matrix(0.08, 0.49, 0.49, -0.08, 1726.09, -1910.41)" xlink:href="#linear-gradient-2"/><linearGradient id="linear-gradient-8" x1="-232.6" y1="-2410.27" x2="340.11" y2="-2155.28" gradientTransform="matrix(0.63, -0.17, -0.24, -0.47, -197.96, -999.22)" xlink:href="#linear-gradient-2"/><linearGradient id="linear-gradient-9" x1="1684.41" y1="374.08" x2="2214.64" y2="610.16" gradientTransform="matrix(-0.9, -0.46, -0.78, 0.53, 2528.72, 862.12)" xlink:href="#linear-gradient-2"/><linearGradient id="linear-gradient-10" x1="3887.28" y1="-249.45" x2="4460.49" y2="5.76" gradientTransform="matrix(-0.72, 0.22, 0.34, 0.45, 3477.14, -479.4)" xlink:href="#linear-gradient-2"/><linearGradient id="linear-gradient-11" x1="1255.37" y1="985.17" x2="1782.53" y2="1219.87" gradientTransform="matrix(-0.67, -0.36, -0.7, 0.34, 2271.1, 327.82)" xlink:href="#linear-gradient-2"/><linearGradient id="linear-gradient-12" x1="4056.96" y1="-1434.48" x2="4627.18" y2="-1180.6" gradientTransform="matrix(-0.43, 0.6, 0.25, 1.03, 2693.02, -1256.16)" xlink:href="#linear-gradient-2"/><linearGradient id="linear-gradient-13" x1="-393" y1="-169.04" x2="191.19" y2="91.06" gradientTransform="matrix(0.36, -0.68, -0.35, -0.72, 492.21, 313.11)" xlink:href="#linear-gradient-2"/><linearGradient id="linear-gradient-14" x1="1649.89" y1="511.43" x2="2166.65" y2="741.51" gradientTransform="matrix(-0.81, -0.61, -0.8, 0.62, 2349.01, 833.79)" xlink:href="#linear-gradient-2"/><linearGradient id="linear-gradient-15" x1="-872.62" y1="-97.22" x2="-263.11" y2="174.15" gradientTransform="matrix(0.24, -0.44, -0.44, -0.24, 612.24, -131.02)" xlink:href="#linear-gradient-2"/><linearGradient id="linear-gradient-16" x1="14.53" y1="-1043.44" x2="620.96" y2="-773.44" gradientTransform="matrix(0.52, -0.51, -0.94, -0.28, -653.92, 354.97)" xlink:href="#linear-gradient-2"/><linearGradient id="linear-gradient-17" x1="546.28" y1="-1249.76" x2="1127.72" y2="-990.89" gradientTransform="matrix(0.91, -0.6, -0.58, -0.94, -1027.32, -330.47)" xlink:href="#linear-gradient-2"/><linearGradient id="linear-gradient-18" x1="3896.67" y1="-2407.95" x2="4499.58" y2="-2139.52" gradientTransform="matrix(-0.32, 0.86, 0.39, 0.7, 2713.12, -1969.55)" xlink:href="#linear-gradient-2"/><linearGradient id="linear-gradient-19" x1="4036.78" y1="785" x2="4574.45" y2="1024.38" gradientTransform="matrix(-0.5, 0.04, 0.04, 0.5, 2584.91, -601.72)" xlink:href="#linear-gradient-2"/><linearGradient id="linear-gradient-20" x1="2027.06" y1="-2452.6" x2="2570.23" y2="-2210.76" gradientTransform="matrix(0.99, 0.09, -0.09, -0.77, -1990.82, -1900.68)" xlink:href="#linear-gradient-2"/><linearGradient id="linear-gradient-21" x1="361.16" y1="-2684.56" x2="876.67" y2="-2455.03" gradientTransform="matrix(0.44, 0.49, 0.24, -0.89, 763.05, -2295.13)" xlink:href="#linear-gradient-2"/><linearGradient id="linear-gradient-22" x1="623.44" y1="-906.86" x2="1142.02" y2="-675.97" gradientTransform="matrix(-0.47, -0.17, -0.17, 0.47, 811.22, 899.41)" gradientUnits="userSpaceOnUse"><stop offset="0" stop-color="#a2a2a2"/><stop offset="0.28" stop-color="#7d7d7d"/><stop offset="0.77" stop-color="#414141"/><stop offset="1" stop-color="#292929"/></linearGradient><linearGradient id="linear-gradient-23" x1="3050.87" y1="-1219.54" x2="3628.48" y2="-962.37" gradientTransform="matrix(0.36, 0.48, 0.88, -0.14, 336.52, -1678.03)" xlink:href="#linear-gradient-22"/><linearGradient id="linear-gradient-24" x1="1808.92" y1="-1954.98" x2="2415.96" y2="-1684.71" gradientTransform="matrix(0.67, -0.59, -0.64, -0.64, -2013.19, -1.36)" xlink:href="#linear-gradient-22"/><linearGradient id="linear-gradient-25" x1="2437.84" y1="-860.25" x2="2970.56" y2="-623.07" gradientTransform="matrix(0.39, 1.01, 1.01, -0.39, 327.46, -2487.04)" xlink:href="#linear-gradient-22"/><linearGradient id="linear-gradient-26" x1="1477.43" y1="-315.27" x2="2081.17" y2="-46.47" gradientTransform="matrix(-0.65, 0.12, 0.2, 0.49, 1798.47, 169.81)" xlink:href="#linear-gradient-22"/><linearGradient id="linear-gradient-27" x1="2671.02" y1="-1389.78" x2="3213.4" y2="-1148.29" gradientTransform="matrix(0.85, 0.53, 0.82, -0.46, -765.11, -1909.51)" xlink:href="#linear-gradient-22"/><linearGradient id="linear-gradient-28" x1="2080.83" y1="-2327.29" x2="2666.33" y2="-2066.61" gradientTransform="matrix(0.73, -0.16, -0.31, -0.48, -1820.63, -651.76)" xlink:href="#linear-gradient-22"/><linearGradient id="linear-gradient-29" x1="2919.43" y1="-1321.83" x2="3462.61" y2="-1079.99" gradientTransform="matrix(0.64, 0.42, 0.73, -0.29, -552.03, -1357.07)" xlink:href="#linear-gradient-22"/><linearGradient id="linear-gradient-30" x1="2563.97" y1="-1788.59" x2="3127.38" y2="-1537.74" gradientTransform="matrix(0.48, -0.56, -0.17, -1.05, -1103.64, 186.85)" xlink:href="#linear-gradient-22"/><linearGradient id="linear-gradient-31" x1="1330.33" y1="-3.34" x2="1929.3" y2="263.34" gradientTransform="matrix(-0.42, 0.65, 0.28, 0.74, 1218.67, -1194.5)" xlink:href="#linear-gradient-22"/><linearGradient id="linear-gradient-32" x1="2475.34" y1="-990.45" x2="2992.04" y2="-760.4" gradientTransform="matrix(0.75, 0.68, 0.84, -0.55, -587.37, -1866.93)" xlink:href="#linear-gradient-22"/><linearGradient id="linear-gradient-33" x1="2103.54" y1="140.57" x2="2712.36" y2="411.64" gradientTransform="matrix(-0.28, 0.42, 0.42, 0.28, 1062.59, -761.97)" xlink:href="#linear-gradient-22"/><linearGradient id="linear-gradient-34" x1="2398.51" y1="-518.99" x2="3005.51" y2="-248.73" gradientTransform="matrix(-0.56, 0.46, 0.92, 0.36, 2364.85, -1141.86)" xlink:href="#linear-gradient-22"/><linearGradient id="linear-gradient-35" x1="1664.62" y1="-642.89" x2="2260.25" y2="-377.7" gradientTransform="matrix(-0.95, 0.52, 0.5, 0.98, 2681, -428.45)" xlink:href="#linear-gradient-22"/><linearGradient id="linear-gradient-36" x1="2236.5" y1="-2216.66" x2="2829.03" y2="-1952.85" gradientTransform="matrix(0.39, -0.84, -0.33, -0.73, -1182.7, 896.77)" xlink:href="#linear-gradient-22"/><linearGradient id="linear-gradient-37" x1="2785.95" y1="-1765.38" x2="3331.44" y2="-1522.51" gradientTransform="matrix(0.5, 0, 0, -0.5, -941.6, -455.73)" xlink:href="#linear-gradient-22"/><linearGradient id="linear-gradient-38" x1="1164.74" y1="-1620.66" x2="1714.11" y2="-1376.07" gradientTransform="matrix(-0.17, -0.97, -0.72, 0.29, -210.79, 2357.11)" xlink:href="#linear-gradient-22"/><linearGradient id="linear-gradient-39" x1="599.73" y1="-1089.78" x2="1129.32" y2="-853.99" gradientTransform="matrix(-0.4, -0.52, -0.31, 0.86, 733.83, 1381.7)" xlink:href="#linear-gradient-22"/></defs><g class="cls-1"><g id="Layer_2" data-name="Layer 2"><g id="Layer_1-2" data-name="Layer 1"><g class="cls-2"><rect class="cls-3" y="0.17" width="569.57" height="402.73"/><rect class="cls-4" x="192.89" width="377.75" height="403.08"/><polygon class="cls-5" points="570.63 82.31 397.88 25.22 403.92 0 570.63 0 570.63 82.31"/><polygon class="cls-6" points="570.63 403.08 192.89 403.08 192.89 367.77 520.42 273.29 570.63 339.74 570.63 403.08"/><polygon class="cls-7" points="570.63 403.08 303.79 403.08 470.35 200.46 570.63 300.44 570.63 403.08"/><polygon class="cls-8" points="570.63 137.83 262.4 311.57 192.89 144.33 192.89 0 570.63 0 570.63 137.83"/><polygon class="cls-9" points="509.54 317.2 447.94 403.08 289.92 403.08 192.89 307.01 192.89 299.42 316.93 126.51 509.54 317.2"/><polygon class="cls-10" points="502.67 233.13 471.91 4.03 223.09 50.15 253.86 279.24 502.67 233.13"/><polygon class="cls-11" points="477.42 0 536.06 136.73 286.07 217.75 192.89 0.46 192.89 0 477.42 0"/><polygon class="cls-12" points="570.63 361.96 518.65 403.08 192.89 403.08 192.89 167.48 397.33 5.77 570.63 110.57 570.63 361.96"/><polygon class="cls-13" points="570.63 403.08 339.21 403.08 297.42 338.8 570.63 242.17 570.63 403.08"/><polygon class="cls-14" points="570.63 252.11 440.05 327.34 192.89 170.38 192.89 149.43 452.28 0 570.63 0 570.63 252.11"/><polygon class="cls-15" points="570.63 164.28 438.59 380.34 359.7 0 570.63 0 570.63 164.28"/><polygon class="cls-16" points="570.63 403.08 370.62 403.08 507.56 98.81 570.63 252.7 570.63 403.08"/><polygon class="cls-17" points="569.76 0 351.59 199.22 192.89 58.13 192.89 0 569.76 0"/><polygon class="cls-18" points="570.63 246.39 553.11 283.86 332.36 141.32 398.48 0 523.38 0 570.63 30.52 570.63 246.39"/><polygon class="cls-19" points="570.63 403.08 192.89 403.08 192.89 277.86 219.5 247.07 570.63 369.33 570.63 403.08"/><polygon class="cls-20" points="570.63 403.08 258.93 403.08 192.89 278.64 192.89 40.1 244.45 0 551.5 0 570.63 36.05 570.63 403.08"/><polygon class="cls-21" points="570.63 403.08 551.25 403.08 401.53 85.61 428.09 0 570.63 0 570.63 403.08"/><polygon class="cls-22" points="537.07 0 541.69 69.71 344.86 87.75 339.04 0 537.07 0"/><polygon class="cls-23" points="570.63 261.38 257.35 227.32 235.02 0 570.63 0 570.63 261.38"/><polygon class="cls-24" points="316.11 403.08 377.51 139.15 550.29 366.19 541.71 403.08 316.11 403.08"/><polygon class="cls-25" points="570.63 403.08 477.77 403.08 495.86 346.1 570.63 378.85 570.63 403.08"/><polygon class="cls-26" points="570.63 159.36 468.93 0 570.63 0 570.63 159.36"/><polygon class="cls-27" points="570.63 186.24 412.4 0 570.63 0 570.63 186.24"/><polygon class="cls-28" points="570.63 403.08 331.33 403.08 325.02 384.06 570.63 273.9 570.63 403.08"/><polygon class="cls-29" points="570.63 359.74 550.98 302.58 570.63 298.22 570.63 359.74"/><polygon class="cls-30" points="570.63 366.33 342.83 199.28 570.63 49.61 570.63 366.33"/><polygon class="cls-31" points="570.63 182.47 513.39 196.79 406.11 0 570.63 0 570.63 182.47"/><polygon class="cls-32" points="570.63 403.08 438.88 403.08 292.66 290.97 570.63 163.07 570.63 403.08"/><polygon class="cls-33" points="570.63 403.08 485.3 403.08 475.61 330.88 570.63 199.78 570.63 403.08"/><polygon class="cls-34" points="570.63 324.52 464.73 0 570.63 0 570.63 324.52"/><polygon class="cls-35" points="570.63 403.08 550.19 403.08 570.63 387.41 570.63 403.08"/><polygon class="cls-36" points="570.63 403.08 506.47 403.08 435.27 347.65 544.33 154.31 570.63 174.79 570.63 403.08"/><polygon class="cls-37" points="570.63 84.67 413.17 12.76 426.2 0 570.63 0 570.63 84.67"/><polygon class="cls-38" points="570.63 403.08 510.98 403.08 349.54 34.18 402.54 0 570.63 0 570.63 403.08"/><polygon class="cls-39" points="570.63 403.08 394.77 403.08 363.53 321.62 489.81 0 540.87 0 570.63 77.61 570.63 403.08"/><polygon class="cls-40" points="570.63 403.08 540.51 403.08 540.65 368.83 570.63 369 570.63 403.08"/><polygon class="cls-41" points="570.63 403.08 454.35 403.08 443.43 331.19 570.63 270.85 570.63 403.08"/><polygon class="cls-42" points="570.63 100.09 552.92 72.53 570.63 15.41 570.63 100.09"/></g></g></g></g></svg>